<svg width="23" height="23" viewBox="0 0 23 23" fill="none" xmlns="http://www.w3.org/2000/svg">
<path fill-rule="evenodd" clip-rule="evenodd" d="M8.06348 1.34405C8.06348 0.601751 8.66523 0 9.40752 0C14.3562 0 18.3678 4.01167 18.3678 8.9603C18.3678 9.7026 17.7661 10.3043 17.0238 10.3043C16.2815 10.3043 15.6797 9.7026 15.6797 8.9603C15.6797 5.49623 12.8716 2.68809 9.40752 2.68809C8.66523 2.68809 8.06348 2.08634 8.06348 1.34405Z" fill="white"/>
<path fill-rule="evenodd" clip-rule="evenodd" d="M14.3356 21.0567C14.3356 21.799 13.7338 22.4008 12.9915 22.4008C8.04293 22.4008 4.03125 18.3891 4.03125 13.4405C4.03125 12.6982 4.633 12.0964 5.37529 12.0964C6.11759 12.0964 6.71934 12.6982 6.71934 13.4405C6.71934 16.9045 9.52752 19.7127 12.9915 19.7127C13.7338 19.7127 14.3356 20.3144 14.3356 21.0567Z" fill="white"/>
<path fill-rule="evenodd" clip-rule="evenodd" d="M1.34405 14.3363C0.601751 14.3363 3.24468e-08 13.7346 0 12.9923C-2.16312e-07 8.04364 4.01167 4.03198 8.9603 4.03198C9.7026 4.03198 10.3043 4.63375 10.3043 5.37604C10.3043 6.11834 9.7026 6.72009 8.9603 6.72009C5.49628 6.72009 2.68809 9.52823 2.68809 12.9923C2.68809 13.7346 2.08634 14.3363 1.34405 14.3363Z" fill="white"/>
<path fill-rule="evenodd" clip-rule="evenodd" d="M21.056 8.06421C21.7983 8.06421 22.4001 8.66596 22.4001 9.40825C22.4001 14.3569 18.3884 18.3686 13.4397 18.3686C12.6975 18.3686 12.0957 17.7668 12.0957 17.0245C12.0957 16.2822 12.6975 15.6805 13.4397 15.6805C16.9038 15.6805 19.712 12.8723 19.712 9.40825C19.712 8.66596 20.3137 8.06421 21.056 8.06421Z" fill="white"/>
</svg>
