<svg width="180" height="30" viewBox="0 0 180 30" fill="none" xmlns="http://www.w3.org/2000/svg">
<path d="M122.61 13.5086V22.7521H126.225V7.11206H122.61V13.5086Z" fill="white"/>
<path d="M114.414 7.11206H110.799V22.7521H114.414V16.3555H119.723L122.612 13.5086H114.414V7.11206Z" fill="white"/>
<path d="M132.587 9.9538H142.415V7.11206H132.047H128.972V22.7521H132.587V16.3555H141.182V13.5086H132.587V9.9538Z" fill="white"/>
<path d="M87.4827 19.9103H79.3953V7.11206H75.7803V19.9103L79.3953 22.7521H87.4827L91.0976 19.9103V7.11206H87.4827V19.9103Z" fill="white"/>
<path d="M97.0789 7.11206H96.4278H93.4639V15.6425H96.232H97.0789H104.769V19.9103H97.0789V22.7521H104.769H105.907H108.384V12.8008H105.907H104.769H97.0789V9.9538H104.769V7.11206H97.0789Z" fill="white"/>
<path d="M104.768 11.3747H108.383V7.11206L104.768 9.9538V11.3747Z" fill="white"/>
<path d="M93.4639 17.4172V22.752L97.0789 19.9103V17.4172H93.4639Z" fill="white"/>
<path d="M61.8523 7.11206H58.2373V22.7521H61.8523V18.1303H67.0869L69.8074 22.7521H73.4224L70.7019 18.1303H73.4806V7.11206H61.8576H61.8523ZM69.8603 15.2886H61.8523V9.95901H69.8603V15.2886Z" fill="white"/>
<path d="M152.174 7.11206H148.559L142.414 22.7521H146.029L147.008 20.2642H151.454L154.344 17.4225H148.125L150.766 10.7033H151.777L156.514 22.7573H160.129L153.984 7.11726H152.179L152.174 7.11206Z" fill="white"/>
<path d="M178.18 7.11206H175.073L171.278 18.1303H170.913L167.118 7.11206H162.195V22.7521H165.826V13.5086H166.191L169.404 22.7521H173.098L176.004 13.5086H176.369V22.7521H180V7.11206H178.185H178.18Z" fill="white"/>
<path d="M40.6455 7.46598V9.9538V19.9103V21.6851V22.7521H55.6824V21.6851V19.9103V15.9964H51.9245V19.9103H44.4034V15.9964H51.9245V13.1547H44.4034V9.9538H51.9245V13.1547H55.6824V9.9538V7.46598V7.11206H40.6455V7.46598Z" fill="white"/>
<path d="M30.6183 12V6L24.4946 0H12.2473L6.12366 6V0L0 6V30H6.12366H24.4946L30.6183 24V18L27.5559 15.0006L30.6183 12ZM24.4946 6V12H12.2473V18H24.4946L18.371 24H12.2473L6.12366 30V6H24.4946Z" fill="white"/>
</svg>
