<svg width="25" height="24" viewBox="0 0 25 24" fill="none" xmlns="http://www.w3.org/2000/svg">
<path fill-rule="evenodd" clip-rule="evenodd" d="M15 2.38963C15 1.48409 14.2659 0.75 13.3604 0.75H11.6396C10.7341 0.75 10 1.48409 10 2.38963V2.71096C10 3.24572 9.64109 3.71031 9.1472 3.91537V3.91537C8.65313 4.1205 8.07785 4.04232 7.69957 3.66404L7.35375 3.31822C6.62572 2.59019 5.44535 2.59019 4.71732 3.31822L3.81822 4.21732C3.09019 4.94535 3.09019 6.12572 3.81822 6.85375L4.16404 7.19958C4.54232 7.57786 4.6205 8.15313 4.41537 8.64721V8.64721C4.21031 9.1411 3.74572 9.5 3.21096 9.5H2.88963C1.98409 9.5 1.25 10.2341 1.25 11.1396V12.8604C1.25 13.7659 1.98409 14.5 2.88963 14.5H3.39971C3.82249 14.5 4.19083 14.7824 4.34436 15.1763V15.1763C4.4919 15.5549 4.42157 15.9883 4.13428 16.2756L3.73629 16.6736C3.0535 17.3564 3.0535 18.4634 3.7363 19.1462L4.94235 20.3523C5.54609 20.956 6.52494 20.956 7.12868 20.3523L7.18431 20.2966C7.65434 19.8266 8.37482 19.7472 8.98339 20.0146V20.0146C9.56886 20.2719 10 20.8261 10 21.4656V21.6104C10 22.5159 10.7341 23.25 11.6396 23.25H13.3604C14.2659 23.25 15 22.5159 15 21.6104V21.289C15 20.7543 15.3589 20.2897 15.8528 20.0846V20.0846C16.3469 19.8795 16.9221 19.9577 17.3004 20.336L17.4093 20.4448C17.9619 20.9975 18.8579 20.9975 19.4105 20.4448L20.9448 18.9105C21.4974 18.3579 21.4974 17.4619 20.9448 16.9093L20.836 16.8004C20.4577 16.4222 20.3795 15.8469 20.5846 15.3528V15.3528C20.7897 14.8589 21.2543 14.5 21.789 14.5H22.1104C23.0159 14.5 23.75 13.7659 23.75 12.8604V11.1396C23.75 10.2341 23.0159 9.5 22.1104 9.5H21.9656C21.3261 9.5 20.7719 9.06886 20.5146 8.48339V8.48339C20.2472 7.87482 20.3266 7.15434 20.7966 6.68431L20.8523 6.62869C21.456 6.02495 21.456 5.04611 20.8523 4.44238L19.6462 3.2363C18.9634 2.55351 17.8564 2.55351 17.1736 3.2363L16.7756 3.63428C16.4883 3.92157 16.0549 3.9919 15.6763 3.84436V3.84436C15.2824 3.69083 15 3.32249 15 2.89971V2.38963ZM12.5 15.75C14.5711 15.75 16.25 14.0711 16.25 12C16.25 9.92893 14.5711 8.25 12.5 8.25C10.4289 8.25 8.75 9.92893 8.75 12C8.75 14.0711 10.4289 15.75 12.5 15.75Z" stroke="white" stroke-linejoin="round"/>
</svg>
