<svg width="180" height="31" viewBox="0 0 180 31" fill="none" xmlns="http://www.w3.org/2000/svg">
<path d="M23.8407 14.4187H0.000750524C-0.002637 14.3259 0.00545189 14.233 0.0248324 14.1423C0.54979 12.5408 1.0892 10.9442 1.60453 9.34051C1.63309 9.20586 1.71262 9.08715 1.82681 9.00877C1.94099 8.93029 2.08116 8.89816 2.21859 8.91864C6.70001 8.91864 11.1862 8.84954 15.6677 8.95918C19.2509 9.04975 21.9118 10.8227 23.6842 13.8991C23.7518 14.0199 23.8114 14.1448 23.8624 14.2733C23.8648 14.3043 23.8479 14.3496 23.8407 14.4187Z" fill="white"/>
<path d="M32.5534 15.6481C32.1344 16.9157 31.7395 18.1358 31.3277 19.3536C31.1326 19.9303 31.0628 20.7143 30.6462 21.0098C30.2296 21.3052 29.459 21.1289 28.8402 21.1313C24.9391 21.1313 21.038 21.1742 17.1369 21.1313C13.4743 21.0813 10.7291 19.3989 8.86756 16.289C8.78809 16.1532 8.71827 16.0102 8.65085 15.8673C8.63011 15.7999 8.61719 15.7302 8.6123 15.6599L32.5534 15.6481Z" fill="white"/>
<path d="M8.55664 7.70798C9.44652 5.79625 10.9583 4.23491 12.8502 3.27323C14.1113 2.60942 15.5156 2.25623 16.944 2.24383C21.0834 2.22475 25.2229 2.24383 29.3624 2.24383C29.511 2.25224 29.6589 2.26895 29.8055 2.29386C29.7884 2.43595 29.7619 2.57686 29.7261 2.71562C29.2252 4.23836 28.7123 5.75873 28.2162 7.28622C28.115 7.60319 27.9875 7.77946 27.6021 7.77946C21.3812 7.76997 15.1612 7.76997 8.94197 7.77946C8.81233 7.76286 8.68367 7.73892 8.55664 7.70798Z" fill="white"/>
<path d="M23.9204 22.3444C23.1865 23.942 22.0134 25.3031 20.5349 26.2723C19.0564 27.2414 17.3324 27.7796 15.5596 27.8253C11.3985 27.8634 7.23723 27.8253 3.07609 27.8253C2.96051 27.8253 2.83528 27.8038 2.64746 27.7823C2.70284 27.5703 2.74138 27.3844 2.80157 27.2057C3.28319 25.7378 3.78407 24.2746 4.24644 22.8043C4.35718 22.4563 4.5017 22.2871 4.90863 22.2895C11.1102 22.3006 17.311 22.3006 23.511 22.2895C23.6194 22.3015 23.7157 22.3229 23.9204 22.3444Z" fill="white"/>
<path d="M46.9436 23.8941C45.4 23.8941 44.2755 23.5397 43.5699 22.8307C42.8863 22.1004 42.6879 21.08 42.9745 19.7695L45.1905 9.49023H41.6846L42.1476 7.46023H45.6205L46.5135 3.36777L49.0604 2.75562L48.0351 7.46023H52.8641L52.401 9.49023H47.572L45.4221 19.2539C45.2237 20.1777 45.3118 20.8436 45.6867 21.2518C46.0615 21.6385 46.7892 21.8318 47.8696 21.8318C48.1784 21.8318 48.476 21.8104 48.7628 21.7674C49.0494 21.7029 49.3912 21.617 49.788 21.5096L49.3581 23.6041C49.0052 23.6901 48.6084 23.7545 48.1673 23.7975C47.7483 23.8619 47.3404 23.8941 46.9436 23.8941Z" fill="white"/>
<path d="M51.7782 30.4999C51.4695 30.4999 51.1608 30.4784 50.8521 30.4355C50.5433 30.3924 50.2457 30.3281 49.959 30.2421L50.4221 28.1153C50.5985 28.1798 50.819 28.2227 51.0836 28.2443C51.3262 28.2872 51.5797 28.3087 51.8444 28.3087C52.5499 28.3087 53.2004 28.1153 53.7958 27.7287C54.3911 27.342 54.9534 26.7512 55.4826 25.9564L57.0703 23.5719L53.895 7.46021H56.4419L58.9225 20.8328L67.4559 7.46021H70.1351L57.8641 26.4397C56.9379 27.879 56.0008 28.9102 55.0527 29.5332C54.1045 30.1777 53.013 30.4999 51.7782 30.4999Z" fill="white"/>
<path d="M67.4219 30.1777L72.3832 7.46027H74.7646L74.5 8.62023C75.9333 7.69649 77.4547 7.23462 79.0644 7.23462C80.4756 7.23462 81.7215 7.55687 82.8019 8.20137C83.9045 8.84588 84.7754 9.72659 85.4148 10.8436C86.0543 11.9608 86.374 13.2282 86.374 14.6461C86.374 15.9135 86.1314 17.1058 85.6464 18.2229C85.1834 19.3399 84.5329 20.3281 83.6949 21.1874C82.8791 22.0252 81.9199 22.6911 80.8174 23.1852C79.7149 23.6579 78.5351 23.8941 77.2783 23.8941C76.1538 23.8941 75.1063 23.6901 74.1361 23.282C73.1879 22.8738 72.3721 22.2937 71.6885 21.5419L69.8032 30.1777H67.4219ZM77.2122 21.7674C78.4911 21.7674 79.6377 21.4559 80.652 20.8329C81.6883 20.2099 82.5042 19.3721 83.0996 18.3196C83.717 17.2669 84.0257 16.1068 84.0257 14.8394C84.0257 13.7652 83.7942 12.8201 83.3311 12.0037C82.868 11.1659 82.2175 10.5107 81.3797 10.0381C80.5638 9.56552 79.6266 9.3292 78.5682 9.3292C77.7083 9.3292 76.8814 9.4796 76.0876 9.78029C75.3158 10.0596 74.6212 10.4785 74.0039 11.0371L72.2177 19.1574C72.6587 19.9522 73.3313 20.5859 74.2354 21.0585C75.1395 21.5311 76.1317 21.7674 77.2122 21.7674Z" fill="white"/>
<path d="M96.9301 23.894C95.3865 23.894 94.0084 23.5718 92.7956 22.9273C91.5828 22.2828 90.6347 21.3913 89.9512 20.2528C89.2676 19.0927 88.9258 17.7823 88.9258 16.3215C88.9258 15.0755 89.1463 13.9047 89.5873 12.8091C90.0504 11.6921 90.6788 10.7146 91.4726 9.87684C92.2884 9.03903 93.2146 8.38385 94.2509 7.9112C95.3094 7.43855 96.4339 7.20233 97.6247 7.20233C98.9697 7.20233 100.171 7.53526 101.23 8.20122C102.289 8.86717 103.126 9.76945 103.744 10.908C104.361 12.0466 104.67 13.3462 104.67 14.807C104.67 15.0219 104.659 15.2582 104.637 15.516C104.637 15.7522 104.614 15.9993 104.571 16.2571H91.3073C91.3293 17.3312 91.5939 18.2872 92.101 19.125C92.6082 19.9628 93.2918 20.6288 94.1517 21.1227C95.0117 21.5954 95.9709 21.8317 97.0292 21.8317C97.8452 21.8317 98.639 21.7136 99.4107 21.4772C100.182 21.2409 100.877 20.9187 101.494 20.5106L102.751 22.154C101.847 22.7555 100.921 23.1959 99.973 23.4751C99.0248 23.7543 98.0105 23.894 96.9301 23.894ZM91.5387 14.3559H102.387C102.321 13.3677 102.068 12.4976 101.627 11.7458C101.186 10.9939 100.601 10.4032 99.8738 9.97354C99.1461 9.52235 98.3192 9.2968 97.3931 9.2968C96.467 9.2968 95.5961 9.52235 94.7801 9.97354C93.9863 10.4032 93.3027 11.0047 92.7295 11.778C92.1782 12.5299 91.7813 13.3891 91.5387 14.3559Z" fill="white"/>
<path d="M114.518 23.894C113.106 23.894 111.838 23.5825 110.713 22.9595C109.589 22.315 108.707 21.445 108.067 20.3494C107.428 19.2324 107.108 17.9649 107.108 16.5471C107.108 15.2796 107.351 14.0873 107.836 12.9703C108.321 11.8317 108.982 10.8328 109.821 9.97354C110.68 9.11417 111.662 8.43754 112.764 7.94343C113.867 7.44933 115.046 7.20233 116.304 7.20233C117.538 7.20233 118.729 7.48157 119.876 8.04014C121.022 8.59861 121.937 9.33982 122.62 10.2636L120.868 11.8425C120.272 11.0261 119.566 10.4138 118.751 10.0057C117.957 9.57604 117.086 9.36128 116.137 9.36128C115.256 9.36128 114.407 9.55458 113.591 9.94131C112.798 10.3065 112.092 10.822 111.474 11.488C110.856 12.1325 110.372 12.8844 110.019 13.7436C109.666 14.5814 109.489 15.4837 109.489 16.4504C109.489 17.4386 109.721 18.3409 110.184 19.1572C110.67 19.9735 111.309 20.618 112.103 21.0906C112.918 21.5632 113.823 21.7995 114.815 21.7995C115.609 21.7995 116.392 21.6491 117.163 21.3484C117.957 21.0476 118.74 20.618 119.512 20.0594L120.669 21.735C118.773 23.1743 116.723 23.894 114.518 23.894Z" fill="white"/>
<path d="M122.818 23.6041L127.747 1.0478L130.227 0.5L128.375 9.07141C129.808 7.80397 131.473 7.17024 133.37 7.17024C134.67 7.17024 135.763 7.46026 136.644 8.04029C137.549 8.62021 138.188 9.41511 138.563 10.4248C138.937 11.4344 138.982 12.5837 138.695 13.8727L136.578 23.6041H134.197L136.247 14.1627C136.578 12.6804 136.402 11.4881 135.718 10.5859C135.057 9.68368 134.009 9.23248 132.576 9.23248C131.672 9.23248 130.812 9.4259 129.996 9.81251C129.203 10.1992 128.486 10.7577 127.846 11.4881L125.2 23.6041H122.818Z" fill="white"/>
<path d="M146.503 23.8298C144.805 23.8298 143.438 23.4216 142.401 22.6052C141.366 21.7889 140.848 20.6933 140.848 19.3185C140.848 18.2658 141.123 17.3528 141.674 16.5795C142.225 15.7846 143.008 15.1724 144.022 14.7427C145.036 14.2916 146.228 14.0661 147.594 14.0661C148.565 14.0661 149.502 14.1949 150.407 14.4527C151.333 14.689 152.159 15.022 152.886 15.4517L153.316 13.5505C153.626 12.0897 153.449 10.9941 152.788 10.2637C152.148 9.53332 151.012 9.16816 149.381 9.16816C148.675 9.16816 147.926 9.27554 147.132 9.4903C146.36 9.68372 145.456 9.99519 144.42 10.4248L143.757 8.52366C144.904 8.05101 145.973 7.7073 146.966 7.49254C147.958 7.27767 148.895 7.17029 149.778 7.17029C151.277 7.17029 152.512 7.41729 153.482 7.91139C154.452 8.4055 155.125 9.12514 155.5 10.0703C155.896 10.9941 155.951 12.1004 155.665 13.3893L153.449 23.6041H151.1L151.398 22.283C150.649 22.7986 149.866 23.1853 149.05 23.4431C148.256 23.7008 147.408 23.8298 146.503 23.8298ZM147.132 21.993C147.992 21.993 148.807 21.8641 149.579 21.6064C150.373 21.327 151.123 20.9082 151.828 20.3496L152.49 17.3206C151.233 16.3109 149.59 15.8062 147.562 15.8062C146.283 15.8062 145.224 16.1176 144.386 16.7406C143.548 17.3636 143.13 18.1476 143.13 19.0929C143.13 19.9951 143.483 20.7041 144.187 21.2196C144.893 21.7352 145.875 21.993 147.132 21.993Z" fill="white"/>
<path d="M157.38 23.6045L160.886 7.4607H163.268L159.761 23.6045H157.38ZM162.903 4.36724C162.485 4.36724 162.132 4.22762 161.846 3.94828C161.581 3.66905 161.448 3.32534 161.448 2.91716C161.448 2.59491 161.525 2.3049 161.679 2.04712C161.856 1.76789 162.088 1.55301 162.374 1.40262C162.661 1.23076 162.958 1.14484 163.268 1.14484C163.686 1.14484 164.028 1.28456 164.293 1.56379C164.579 1.82157 164.723 2.1545 164.723 2.56268C164.723 2.88493 164.635 3.18573 164.458 3.46496C164.304 3.72274 164.083 3.93761 163.797 4.10946C163.532 4.28131 163.234 4.36724 162.903 4.36724Z" fill="white"/>
<path d="M163.937 23.6041L167.442 7.4603H169.825L169.461 9.07145C170.937 7.80401 172.614 7.17029 174.488 7.17029C175.789 7.17029 176.88 7.4603 177.762 8.04033C178.666 8.62026 179.305 9.41516 179.681 10.4248C180.055 11.4345 180.1 12.5838 179.813 13.8728L177.696 23.6041H175.315L177.365 14.1628C177.696 12.6805 177.519 11.4882 176.836 10.5859C176.175 9.68372 175.127 9.23252 173.694 9.23252C172.79 9.23252 171.93 9.42594 171.114 9.81256C170.321 10.1993 169.604 10.7577 168.965 11.4882L166.319 23.6041H163.937Z" fill="white"/>
</svg>
