<svg width="21" height="16" viewBox="0 0 21 16" fill="none" xmlns="http://www.w3.org/2000/svg">
<path d="M17.6939 1.35132C20.0508 4.83814 21.2148 8.77119 20.7797 13.299C20.7779 13.3182 20.768 13.3358 20.7523 13.3473C18.9675 14.666 17.2382 15.4663 15.5331 15.9971C15.5198 16.0011 15.5056 16.0009 15.4925 15.9964C15.4793 15.992 15.4679 15.9835 15.4598 15.9721C15.0659 15.4207 14.708 14.8393 14.3944 14.2287C14.3764 14.1928 14.3929 14.1495 14.4299 14.1353C14.9983 13.9198 15.5389 13.6615 16.0588 13.3557C16.0997 13.3316 16.1023 13.2725 16.0645 13.2442C15.9542 13.1617 15.8449 13.0751 15.7402 12.9885C15.7207 12.9725 15.6943 12.9693 15.6722 12.9801C12.2968 14.5484 8.59921 14.5484 5.18391 12.9801C5.16174 12.9701 5.13539 12.9735 5.11635 12.9893C5.012 13.0759 4.90244 13.1617 4.79313 13.2442C4.75531 13.2725 4.75844 13.3316 4.79965 13.3557C5.31957 13.6557 5.86009 13.9198 6.42774 14.1363C6.46452 14.1505 6.482 14.1928 6.46374 14.2287C6.15696 14.8401 5.79904 15.4215 5.39783 15.9729C5.38035 15.9952 5.35165 16.0055 5.32452 15.9971C3.62757 15.4663 1.89827 14.666 0.113401 13.3473C0.098531 13.3358 0.0878354 13.3174 0.0862702 13.2982C-0.277381 9.38172 0.463748 5.41613 3.16922 1.35053C3.17574 1.33977 3.18566 1.33137 3.19713 1.32638C4.52835 0.711648 5.95452 0.25939 7.44513 0.0011065C7.47226 -0.00309323 7.49939 0.00950595 7.51348 0.0336544C7.69765 0.361758 7.90817 0.782518 8.05061 1.12637C9.62182 0.884887 11.2176 0.884887 12.8216 1.12637C12.9641 0.789868 13.1673 0.361758 13.3507 0.0336544C13.3572 0.0216746 13.3673 0.0120771 13.3796 0.00623194C13.3919 0.000386826 13.4057 -0.00140702 13.419 0.0011065C14.9104 0.260177 16.3366 0.712435 17.6668 1.32638C17.6785 1.33137 17.6882 1.33977 17.6939 1.35132V1.35132ZM8.84939 8.79796C8.86582 7.64015 8.02687 6.68209 6.97374 6.68209C5.92922 6.68209 5.09835 7.63175 5.09835 8.79796C5.09835 9.96391 5.94565 10.9136 6.97374 10.9136C8.01852 10.9136 8.84939 9.96391 8.84939 8.79796V8.79796ZM15.7838 8.79796C15.8002 7.64015 14.9613 6.68209 13.9084 6.68209C12.8636 6.68209 12.0328 7.63175 12.0328 8.79796C12.0328 9.96391 12.8801 10.9136 13.9084 10.9136C14.9613 10.9136 15.7838 9.96391 15.7838 8.79796V8.79796Z" fill="white"/>
</svg>
