<svg width="22" height="16" viewBox="0 0 22 16" fill="none" xmlns="http://www.w3.org/2000/svg">
<path d="M18.2925 1.35132C20.6495 4.83814 21.8135 8.77119 21.3783 13.299C21.3765 13.3182 21.3666 13.3358 21.351 13.3473C19.5661 14.666 17.8368 15.4663 16.1317 15.9971C16.1185 16.0011 16.1043 16.0009 16.0911 15.9964C16.078 15.992 16.0666 15.9835 16.0584 15.9721C15.6645 15.4207 15.3066 14.8393 14.9931 14.2287C14.9751 14.1928 14.9915 14.1495 15.0285 14.1353C15.597 13.9198 16.1375 13.6615 16.6574 13.3557C16.6984 13.3316 16.701 13.2725 16.6631 13.2442C16.5528 13.1617 16.4435 13.0751 16.3389 12.9885C16.3193 12.9725 16.293 12.9693 16.2708 12.9801C12.8954 14.5484 9.19785 14.5484 5.78255 12.9801C5.76037 12.9701 5.73403 12.9735 5.71498 12.9893C5.61063 13.0759 5.50107 13.1617 5.39176 13.2442C5.35394 13.2725 5.35707 13.3316 5.39829 13.3557C5.9182 13.6557 6.45872 13.9198 7.02637 14.1363C7.06315 14.1505 7.08063 14.1928 7.06237 14.2287C6.75559 14.8401 6.39768 15.4215 5.99646 15.9729C5.97898 15.9952 5.95029 16.0055 5.92316 15.9971C4.2262 15.4663 2.4969 14.666 0.712033 13.3473C0.697164 13.3358 0.686468 13.3174 0.684903 13.2982C0.321251 9.38172 1.06238 5.41613 3.76785 1.35053C3.77438 1.33977 3.78429 1.33137 3.79577 1.32638C5.12698 0.711648 6.55315 0.25939 8.04376 0.0011065C8.07089 -0.00309323 8.09802 0.00950595 8.11211 0.0336544C8.29628 0.361758 8.5068 0.782518 8.64924 1.12637C10.2205 0.884887 11.8162 0.884887 13.4203 1.12637C13.5627 0.789868 13.7659 0.361758 13.9493 0.0336544C13.9558 0.0216746 13.966 0.0120771 13.9782 0.00623194C13.9905 0.000386826 14.0043 -0.00140702 14.0177 0.0011065C15.5091 0.260177 16.9352 0.712435 18.2654 1.32638C18.2771 1.33137 18.2868 1.33977 18.2925 1.35132V1.35132ZM9.44802 8.79796C9.46445 7.64015 8.6255 6.68209 7.57237 6.68209C6.52785 6.68209 5.69698 7.63175 5.69698 8.79796C5.69698 9.96391 6.54428 10.9136 7.57237 10.9136C8.61715 10.9136 9.44802 9.96391 9.44802 8.79796V8.79796ZM16.3824 8.79796C16.3989 7.64015 15.5599 6.68209 14.5071 6.68209C13.4623 6.68209 12.6314 7.63175 12.6314 8.79796C12.6314 9.96391 13.4787 10.9136 14.5071 10.9136C15.5599 10.9136 16.3824 9.96391 16.3824 8.79796V8.79796Z" fill="black"/>
</svg>
