<svg width="23" height="23" viewBox="0 0 23 23" fill="none" xmlns="http://www.w3.org/2000/svg">
<path fill-rule="evenodd" clip-rule="evenodd" d="M8.06348 1.34356C8.06348 0.601263 8.66523 -0.000488281 9.40752 -0.000488281C14.3562 -0.000488281 18.3678 4.01118 18.3678 8.95982C18.3678 9.70211 17.7661 10.3039 17.0238 10.3039C16.2815 10.3039 15.6797 9.70211 15.6797 8.95982C15.6797 5.49575 12.8716 2.6876 9.40752 2.6876C8.66523 2.6876 8.06348 2.08585 8.06348 1.34356Z" fill="black"/>
<path fill-rule="evenodd" clip-rule="evenodd" d="M14.3356 21.0563C14.3356 21.7985 13.7338 22.4003 12.9915 22.4003C8.04293 22.4003 4.03125 18.3887 4.03125 13.44C4.03125 12.6977 4.633 12.0959 5.37529 12.0959C6.11759 12.0959 6.71934 12.6977 6.71934 13.44C6.71934 16.904 9.52752 19.7122 12.9915 19.7122C13.7338 19.7122 14.3356 20.314 14.3356 21.0563Z" fill="black"/>
<path fill-rule="evenodd" clip-rule="evenodd" d="M1.34405 14.3359C0.601751 14.3359 3.24468e-08 13.7341 0 12.9918C-2.16312e-07 8.04315 4.01167 4.03149 8.9603 4.03149C9.7026 4.03149 10.3043 4.63326 10.3043 5.37555C10.3043 6.11785 9.7026 6.7196 8.9603 6.7196C5.49628 6.7196 2.68809 9.52774 2.68809 12.9918C2.68809 13.7341 2.08634 14.3359 1.34405 14.3359Z" fill="black"/>
<path fill-rule="evenodd" clip-rule="evenodd" d="M21.056 8.06372C21.7983 8.06372 22.4001 8.66547 22.4001 9.40777C22.4001 14.3564 18.3884 18.3681 13.4397 18.3681C12.6975 18.3681 12.0957 17.7663 12.0957 17.024C12.0957 16.2817 12.6975 15.68 13.4397 15.68C16.9038 15.68 19.712 12.8718 19.712 9.40777C19.712 8.66547 20.3137 8.06372 21.056 8.06372Z" fill="black"/>
</svg>
