<svg width="23" height="13" viewBox="0 0 23 13" fill="none" xmlns="http://www.w3.org/2000/svg">
<path d="M12.6395 6.2C12.6395 9.62163 9.81668 12.4 6.31975 12.4C2.82282 12.4 0 9.62163 0 6.2C0 2.77837 2.82282 0 6.31975 0C9.81668 0 12.6395 2.77837 12.6395 6.2ZM19.5631 6.2C19.5631 9.41634 18.1447 12.0305 16.4033 12.0305C14.6618 12.0305 13.2434 9.41634 13.2434 6.2C13.2434 2.98366 14.6618 0.369534 16.4033 0.369534C18.1447 0.369534 19.5631 2.96998 19.5631 6.2ZM22.4 6.2C22.4 9.08786 21.9085 11.4283 21.2905 11.4283C20.6726 11.4283 20.1811 9.08786 20.1811 6.2C20.1811 3.31214 20.6726 0.971741 21.2905 0.971741C21.9085 0.971741 22.4 3.31214 22.4 6.2Z" fill="white"/>
</svg>
