<svg width="24" height="13" viewBox="0 0 24 13" fill="none" xmlns="http://www.w3.org/2000/svg">
<path d="M13.4403 6.2C13.4403 9.62164 10.6175 12.4 7.12053 12.4C3.6236 12.4 0.800781 9.62164 0.800781 6.2C0.800781 2.77837 3.6236 0 7.12053 0C10.6175 0 13.4403 2.77837 13.4403 6.2ZM20.3639 6.2C20.3639 9.41634 18.9455 12.0305 17.204 12.0305C15.4626 12.0305 14.0442 9.41634 14.0442 6.2C14.0442 2.98366 15.4626 0.369534 17.204 0.369534C18.9455 0.369534 20.3639 2.96998 20.3639 6.2ZM23.2008 6.2C23.2008 9.08786 22.7092 11.4283 22.0913 11.4283C21.4734 11.4283 20.9818 9.08786 20.9818 6.2C20.9818 3.31214 21.4734 0.971741 22.0913 0.971741C22.7092 0.971741 23.2008 3.31214 23.2008 6.2Z" fill="black"/>
</svg>
