<svg width="148" height="31" viewBox="0 0 148 31" fill="none" xmlns="http://www.w3.org/2000/svg">
<path d="M38.1536 26.6648C35.87 26.6648 33.9645 25.9274 32.4373 24.4525C30.9244 22.9635 30.168 21.1129 30.168 18.9005C30.168 16.6883 30.9244 14.8447 32.4373 13.3698C33.9645 11.8807 35.87 11.1362 38.1536 11.1362C39.6523 11.1362 41.0081 11.4766 42.2213 12.1573C43.4488 12.8238 44.405 13.7527 45.0902 14.9439C45.7752 16.121 46.1178 17.4398 46.1178 18.9005C46.1178 21.127 45.3614 22.9777 43.8484 24.4525C42.3355 25.9274 40.4372 26.6648 38.1536 26.6648ZM38.1536 23.623C39.0385 23.623 39.8378 23.4244 40.5514 23.0273C41.2651 22.616 41.8217 22.0488 42.2213 21.3255C42.6352 20.6023 42.8422 19.7939 42.8422 18.9005C42.8422 17.5533 42.3926 16.433 41.4934 15.5396C40.6085 14.6319 39.4953 14.1782 38.1536 14.1782C36.8262 14.1782 35.7058 14.6319 34.7924 15.5396C33.8932 16.433 33.4436 17.5533 33.4436 18.9005C33.4436 20.2478 33.8932 21.3752 34.7924 22.2828C35.7058 23.1762 36.8262 23.623 38.1536 23.623Z" fill="white"/>
<path d="M54.6672 14.5396C56.4087 14.5396 57.8498 15.1139 58.9917 16.2626C60.1483 17.4113 60.7263 18.8578 60.7263 20.6021C60.7263 22.3464 60.1483 23.8 58.9917 24.9629C57.8358 26.1115 56.3941 26.6859 54.6672 26.6859C53.4826 26.6859 52.4193 26.3668 51.4773 25.7287V30.4936H48.3516V14.8586H50.4283L50.9635 15.901C51.9911 14.9934 53.2257 14.5396 54.6672 14.5396ZM52.141 22.8569C52.7405 23.4526 53.4898 23.7503 54.3891 23.7503C55.3026 23.7503 56.0592 23.4526 56.6582 22.8569C57.2578 22.2613 57.5577 21.5097 57.5577 20.6021C57.5577 20.0065 57.4218 19.4676 57.1507 18.9854C56.8795 18.5032 56.5012 18.1275 56.0158 17.858C55.545 17.5886 55.0098 17.4538 54.4101 17.4538C53.8111 17.4538 53.2685 17.5886 52.7833 17.858C52.298 18.1275 51.9198 18.5032 51.6486 18.9854C51.3917 19.4676 51.2632 20.0065 51.2632 20.6021C51.2632 21.5097 51.5558 22.2613 52.141 22.8569Z" fill="white"/>
<path d="M74.1629 20.5596C74.1629 20.8573 74.1418 21.1622 74.0991 21.4742H65.3639C65.4928 22.2542 65.7996 22.8569 66.2844 23.2823C66.7839 23.6936 67.4193 23.8993 68.1899 23.8993C68.7181 23.8993 69.196 23.7858 69.6246 23.5589C70.0527 23.3178 70.3882 22.9917 70.6307 22.5804H73.9275C73.4994 23.8283 72.7716 24.821 71.7439 25.5585C70.7161 26.2959 69.5315 26.6646 68.1899 26.6646C66.4771 26.6646 65.05 26.0832 63.9082 24.9203C62.7663 23.7574 62.1953 22.318 62.1953 20.6021C62.1953 19.9214 62.2884 19.2691 62.4741 18.6451C62.6738 18.0211 62.9519 17.4609 63.3085 16.9646C63.6798 16.4682 64.1078 16.0428 64.5933 15.6882C65.0788 15.3195 65.628 15.0359 66.2417 14.8374C66.8554 14.6388 67.5048 14.5396 68.1899 14.5396C69.3459 14.5396 70.3806 14.809 71.2941 15.3479C72.2223 15.8868 72.9285 16.6171 73.4139 17.5389C73.9134 18.4607 74.1629 19.4676 74.1629 20.5596ZM68.1899 17.1773C67.4908 17.1773 66.8981 17.3687 66.4133 17.7516C65.9419 18.1346 65.621 18.6663 65.4494 19.3471H71.0377C70.8948 18.8791 70.6881 18.4891 70.4163 18.1771C70.1452 17.8509 69.8173 17.6027 69.432 17.4326C69.0607 17.2624 68.6467 17.1773 68.1899 17.1773Z" fill="white"/>
<path d="M82.9829 14.582C84.2958 14.582 85.3305 15.0216 86.0871 15.9009C86.8577 16.766 87.2431 17.9288 87.2431 19.3895V26.3454H84.1178V19.8787C84.1178 18.1628 83.4467 17.3048 82.1052 17.3048C81.577 17.3048 81.1132 17.4254 80.7138 17.6665C80.3279 17.9075 80.0287 18.255 79.8144 18.7088C79.6147 19.1626 79.5145 19.6944 79.5145 20.3042V26.3454H76.3887V14.8585H78.5296L79.1509 16.2838C79.3646 16.0143 79.6077 15.7804 79.8788 15.5818C80.1639 15.369 80.4708 15.1918 80.7993 15.05C81.1272 14.894 81.4698 14.7805 81.827 14.7096C82.1977 14.6245 82.5836 14.582 82.9829 14.582Z" fill="white"/>
<path d="M99.1435 18.496C99.8006 18.8363 100.307 19.3185 100.664 19.9425C101.035 20.5523 101.221 21.2543 101.221 22.0484C101.221 23.2397 100.757 24.2536 99.8287 25.0904C98.9158 25.927 97.8096 26.3454 96.5108 26.3454H90.1309V11.455H96.3392C97.624 11.455 98.6944 11.8237 99.5505 12.5611C100.407 13.2844 100.835 14.192 100.835 15.2839C100.835 15.9221 100.685 16.5248 100.386 17.0921C100.086 17.6593 99.6717 18.1273 99.1435 18.496ZM97.6878 15.7945C97.6878 15.5534 97.645 15.3406 97.5595 15.1563C97.4881 14.9577 97.3809 14.7876 97.2387 14.6458C97.0958 14.504 96.9172 14.3976 96.7034 14.3267C96.5031 14.2416 96.2748 14.1991 96.0183 14.1991H93.3205V17.3686H96.0183C96.5319 17.3686 96.9388 17.2267 97.2387 16.9431C97.5379 16.6453 97.6878 16.2625 97.6878 15.7945ZM96.1893 23.3886C96.7175 23.3886 97.1455 23.2326 97.4741 22.9206C97.802 22.6086 97.9665 22.2044 97.9665 21.7081C97.9665 21.2259 97.802 20.8288 97.4741 20.5168C97.1455 20.2048 96.7175 20.0488 96.1893 20.0488H93.3205V23.3886H96.1893Z" fill="white"/>
<path d="M109.54 14.7947H110.568V17.7303H109.219C108.335 17.7303 107.699 17.9359 107.314 18.3471C106.943 18.7584 106.757 19.432 106.757 20.368V26.3454H103.632V14.8585H105.644L106.201 16.2625C106.985 15.2839 108.099 14.7947 109.54 14.7947Z" fill="white"/>
<path d="M121.555 25.2606C120.57 26.1965 119.257 26.6645 117.616 26.6645C115.989 26.6645 114.676 26.1894 113.677 25.2393C112.692 24.2891 112.199 23.0412 112.199 21.4954V14.8585H115.325V21.1338C115.325 21.9563 115.525 22.6016 115.925 23.0696C116.339 23.5233 116.902 23.7502 117.616 23.7502C118.344 23.7502 118.908 23.5233 119.307 23.0696C119.721 22.6016 119.928 21.9563 119.928 21.1338V14.8585H123.054V21.4954C123.054 23.0554 122.554 24.3104 121.555 25.2606Z" fill="white"/>
<path d="M130.007 26.6646C129.051 26.6646 128.202 26.4944 127.46 26.1541C126.731 25.8138 126.161 25.3316 125.747 24.7076C125.347 24.0836 125.147 23.3674 125.147 22.5591H128.188C128.202 22.8995 128.287 23.1902 128.444 23.4313C128.616 23.6582 128.844 23.8283 129.129 23.9418C129.415 24.0411 129.743 24.0907 130.114 24.0907C130.414 24.0907 130.685 24.0482 130.928 23.9631C131.171 23.878 131.37 23.7503 131.527 23.5802C131.684 23.3958 131.763 23.1831 131.763 22.942C131.763 22.5875 131.577 22.3252 131.207 22.1549C130.835 21.9848 130.278 21.8358 129.536 21.7082C129.066 21.6373 128.673 21.5664 128.359 21.4955C128.059 21.4246 127.695 21.3041 127.267 21.1339C126.853 20.9496 126.518 20.7439 126.261 20.517C126.018 20.2901 125.804 19.9781 125.618 19.5811C125.433 19.184 125.34 18.7231 125.34 18.1983C125.34 17.1206 125.768 16.2413 126.625 15.5606C127.481 14.8799 128.601 14.5396 129.986 14.5396C131.385 14.5396 132.505 14.8941 133.347 15.6031C134.204 16.2981 134.632 17.2198 134.632 18.3686H131.656C131.656 17.4609 131.078 17.0071 129.922 17.0071C129.436 17.0071 129.058 17.1064 128.787 17.3049C128.516 17.5035 128.38 17.7729 128.38 18.1132C128.38 18.2551 128.416 18.3898 128.487 18.5174C128.573 18.6309 128.666 18.7231 128.766 18.794C128.88 18.8649 129.051 18.9358 129.279 19.0067C129.508 19.0634 129.7 19.106 129.857 19.1343C130.014 19.1627 130.25 19.2052 130.564 19.262C130.835 19.3187 131.028 19.3612 131.142 19.3896C131.256 19.4037 131.449 19.4392 131.72 19.496C131.991 19.5527 132.191 19.6094 132.32 19.6661C132.462 19.7087 132.648 19.7725 132.876 19.8576C133.119 19.9427 133.297 20.0348 133.411 20.1341C133.54 20.2192 133.69 20.3256 133.861 20.4532C134.047 20.5808 134.189 20.7227 134.289 20.8787C134.389 21.0347 134.489 21.2048 134.589 21.3892C134.689 21.5735 134.753 21.7862 134.781 22.0273C134.824 22.2684 134.846 22.5237 134.846 22.7931C134.846 23.9702 134.403 24.9133 133.518 25.6223C132.634 26.3172 131.463 26.6646 130.007 26.6646Z" fill="white"/>
<path d="M143.761 14.5821C145.074 14.5821 146.108 15.0146 146.865 15.8797C147.622 16.7447 148 17.9076 148 19.3683V26.3455H144.874V19.8788C144.874 19.0138 144.71 18.3685 144.382 17.943C144.068 17.5176 143.561 17.3049 142.861 17.3049C142.077 17.3049 141.449 17.5744 140.978 18.1132C140.507 18.6521 140.271 19.3825 140.271 20.3043V26.3455H137.146V10.7106H140.271V15.9222C141.213 15.0288 142.377 14.5821 143.761 14.5821Z" fill="white"/>
<path d="M0 8.49438V20.7617C0.230994 23.5393 2.12533 29.5572 9.70253 30.483C13.3987 30.7145 19.8671 28.6313 20.7911 20.7617C21.2289 17.0332 19.174 9.44423 9.70253 9.44423V14.1557C11.3196 13.818 16.1709 14.4533 16.1709 19.8359C16.1709 22.382 14.0917 25.8539 9.70253 25.1595C8.16244 24.928 5.08226 23.5393 5.08226 19.8359V11.0405V8.49438H0Z" fill="white"/>
<path d="M5.08226 6.05503H0V0.542585C3.53547 0.159097 4.86128 2.45996 5.08226 3.6583V6.05503Z" fill="white"/>
</svg>
