<svg width="148" height="31" viewBox="0 0 148 31" fill="none" xmlns="http://www.w3.org/2000/svg">
<path d="M97.3683 21.8505C95.6319 21.8505 94.0831 21.9988 92.7229 22.2953C90.5682 22.7584 89.4903 23.5366 89.4903 24.6296H103.613V27.4088H86.3525V24.6296C86.3525 22.6473 87.7118 21.165 90.4322 20.1831C92.4405 19.442 94.7426 19.0715 97.3367 19.0715C98.1944 19.0715 98.9267 18.8028 99.5336 18.2655C100.162 17.7097 100.475 17.052 100.475 16.2924C100.475 15.5327 100.162 14.8843 99.5336 14.3469C98.9267 13.7911 98.1944 13.5133 97.3367 13.5133H92.6291C91.7714 13.5133 91.0286 13.7911 90.4007 14.3469C89.7938 14.8843 89.4903 15.5327 89.4903 16.2924H86.3525C86.3525 14.7361 86.9594 13.4206 88.1722 12.346C89.386 11.2714 90.8716 10.7341 92.6291 10.7341H97.3367C99.0942 10.7341 100.58 11.2714 101.794 12.346C103.006 13.4206 103.613 14.7361 103.613 16.2924C103.613 17.8487 103.006 19.1641 101.794 20.2386C100.58 21.3133 99.1047 21.8505 97.3683 21.8505Z" fill="white"/>
<path d="M39.5 22.1976H42.6149V22.942C42.6149 23.3588 42.7602 23.7162 43.0509 24.014C43.3624 24.2918 43.7362 24.4308 44.1723 24.4308H52.7383C53.1121 24.4308 53.4754 24.1429 53.8285 23.5673C54.14 23.0512 54.2957 22.5945 54.2957 22.1976C54.2957 21.8006 54.1295 21.3341 53.7973 20.7981C53.465 20.2423 53.1121 19.9644 52.7383 19.9644H44.1723C42.6564 19.9644 41.4831 19.4483 40.6525 18.416C39.8841 17.4631 39.5 16.2423 39.5 14.7535C39.5 13.3838 39.9153 12.1928 40.7459 11.1804C41.6182 10.0886 42.7602 9.54272 44.1723 9.54272H52.7383C54.0258 9.54272 55.1264 9.97946 56.04 10.8528C56.9537 11.7263 57.4106 12.7784 57.4106 14.0091V14.7535H54.2957V14.0091C54.2957 13.5923 54.14 13.2449 53.8285 12.967C53.5378 12.6692 53.1743 12.5203 52.7383 12.5203H44.1723C43.757 12.5203 43.3936 12.7883 43.0821 13.3243C42.7707 13.8404 42.6149 14.3169 42.6149 14.7535C42.6149 15.1705 42.7707 15.627 43.0821 16.1232C43.4144 16.6989 43.7778 16.9867 44.1723 16.9867H52.7383C54.2542 16.9867 55.4274 17.5028 56.2581 18.5351C57.0264 19.488 57.4106 20.7088 57.4106 22.1976C57.4106 23.5673 56.9953 24.7584 56.1646 25.7707C55.2925 26.8625 54.1503 27.4084 52.7383 27.4084H44.1723C42.8849 27.4084 41.7842 26.9717 40.8706 26.0983C39.9569 25.2248 39.5 24.1727 39.5 22.942V22.1976Z" fill="white"/>
<path d="M77.6717 18.4756C77.6717 20.9768 76.7684 23.0909 74.9617 24.8178C73.1552 26.5449 70.9436 27.4084 68.3271 27.4084C65.7106 27.4084 63.499 26.5449 61.6923 24.8178C59.8858 23.0909 58.9824 20.9768 58.9824 18.4756C58.9824 15.9743 59.8858 13.8602 61.6923 12.1333C63.499 10.4062 65.7106 9.54272 68.3271 9.54272C70.9436 9.54272 73.1552 10.4062 74.9617 12.1333C76.7684 13.8602 77.6717 15.9743 77.6717 18.4756ZM74.5568 18.4756C74.5568 16.7882 73.9546 15.3788 72.7502 14.2474C71.5665 13.096 70.0922 12.5203 68.3271 12.5203C66.562 12.5203 65.0772 13.096 63.8728 14.2474C62.6891 15.3788 62.0973 16.7882 62.0973 18.4756C62.0973 20.1629 62.6891 21.5822 63.8728 22.7335C65.0772 23.8651 66.562 24.4308 68.3271 24.4308C70.0922 24.4308 71.5665 23.8651 72.7502 22.7335C73.9546 21.5822 74.5568 20.1629 74.5568 18.4756Z" fill="white"/>
<path d="M79.2334 3.58783H82.3483V27.4087H79.2334V3.58783Z" fill="white"/>
<path d="M107.513 24.4312H110.628V27.4088H107.513V24.4312Z" fill="white"/>
<path d="M121.52 12.5203C119.755 12.5203 118.27 13.096 117.066 14.2474C115.882 15.3788 115.291 16.7882 115.291 18.4756V27.4084H112.176V18.4756C112.176 15.9743 113.079 13.8602 114.886 12.1333C116.693 10.4062 118.904 9.54272 121.52 9.54272C124.137 9.54272 126.349 10.4062 128.155 12.1333C129.962 13.8602 130.866 15.9743 130.866 18.4756V27.4084H127.75V18.4756C127.75 16.7882 127.148 15.3788 125.944 14.2474C124.76 13.096 123.285 12.5203 121.52 12.5203Z" fill="white"/>
<path d="M148 25.9199V27.4087H144.885V25.9199C144.885 24.2326 144.283 22.8232 143.079 21.6917C141.895 20.5403 140.421 19.9647 138.655 19.9647H135.541V27.4087H132.426V3.58783H135.541V16.987H138.655C140.421 16.987 141.895 16.4213 143.079 15.2898C144.283 14.1385 144.885 12.7192 144.885 11.0318V9.54302H148V11.0318C148 14.2278 146.609 16.7091 143.826 18.4759C146.609 20.2426 148 22.7239 148 25.9199Z" fill="white"/>
<path d="M107.513 3.58783H110.628V22.9423L107.513 17.8804V3.58783Z" fill="white"/>
<path d="M15.0264 20.5698C15.215 20.6609 15.4366 20.6548 15.6199 20.5533C16.0741 20.3021 16.0566 19.6468 15.5898 19.4198L5.51506 14.5206C4.22222 13.8919 4.24625 12.0513 5.55516 11.4562L4.00149 10.7399L1.79 11.7387C1.3089 11.956 1 12.4329 1 12.9584C1 13.4714 1.29454 13.9392 1.7586 14.1633L15.0264 20.5698Z" fill="url(#paint0_linear_551_977)"/>
<path d="M14.6112 7.02894C15.4084 6.63923 16.3421 6.63837 17.1399 7.02647L26.852 11.7509C28.6511 12.6261 30.75 11.3235 30.75 9.33182C30.75 8.31669 30.1761 7.38791 29.2655 6.92928L17.1126 0.808166C16.3308 0.414358 15.4109 0.397127 14.6148 0.761426L2.08205 6.49568C1.42252 6.79744 1 7.4534 1 8.17533C1 8.89527 1.42032 9.54981 2.07717 9.85271L4.00149 10.7397L5.55516 11.456L24.6334 20.2511L26.1306 19.5246L6.98708 10.756L5.42364 10.0399L2.64902 8.76895C2.42263 8.66519 2.27761 8.43997 2.27761 8.19209C2.27761 7.94335 2.42359 7.71756 2.65112 7.61428L14.6286 2.18064C15.417 1.823 16.3256 1.83842 17.1012 2.22281L28.4895 7.86568C28.9799 8.1086 29.2899 8.60665 29.2899 9.15162C29.2899 10.2156 28.1675 10.9104 27.2074 10.4407L17.1464 5.51863C16.345 5.12653 15.4056 5.12768 14.6051 5.52158L5.42364 10.0399L6.98708 10.756L14.6112 7.02894Z" fill="url(#paint1_linear_551_977)"/>
<path d="M28.884 22.2106C29.1315 22.3248 29.2899 22.5714 29.2899 22.8428C29.2899 23.1142 29.1314 23.3609 28.8837 23.4751L17.1266 28.8892C16.3355 29.2535 15.4207 29.2406 14.6402 28.8543L3.08188 23.1325C2.5891 22.8886 2.27761 22.3883 2.27761 21.8409C2.27761 20.7758 3.39834 20.078 4.36179 20.543L14.6088 25.4888C15.4075 25.8743 16.3406 25.8708 17.1364 25.4791L26.2478 20.9953L27.7392 20.2614L29.9922 19.1528C30.4563 18.9243 30.75 18.4539 30.75 17.9388C30.75 17.4234 30.4557 16.9525 29.9909 16.7244L17.062 10.377C16.8332 10.2648 16.5635 10.2724 16.3416 10.3974C15.7993 10.7029 15.8277 11.489 16.3905 11.7552L26.2069 16.3965C27.4832 16.9999 27.5251 18.7911 26.2784 19.4529L26.1306 19.5246L24.6334 20.2511L17.1138 23.9001C16.3307 24.2801 15.4164 24.286 14.6284 23.9161L4.84902 19.3247C3.05967 18.4846 1 19.7827 1 21.7504C1 22.7661 1.57673 23.6946 2.49002 24.1491L14.6419 30.198C15.4214 30.586 16.3359 30.6009 17.1277 30.2386L29.6694 24.5002C30.3281 24.1989 30.75 23.5439 30.75 22.8229C30.75 22.1022 30.3283 21.4474 29.6701 21.1459L27.7392 20.2614L26.2478 20.9953L28.884 22.2106Z" fill="url(#paint2_linear_551_977)"/>
<path d="M6.98708 10.756L14.6112 7.02894C15.4084 6.63923 16.3421 6.63837 17.1399 7.02647L26.852 11.7509C28.6511 12.6261 30.75 11.3235 30.75 9.33182C30.75 8.31669 30.1761 7.38791 29.2655 6.92928L17.1126 0.808166C16.3308 0.414358 15.4109 0.397127 14.6148 0.761426L2.08205 6.49568C1.42252 6.79744 1 7.4534 1 8.17534C1 8.89527 1.42032 9.54981 2.07717 9.85271L4.00149 10.7397M6.98708 10.756L5.42364 10.0399M6.98708 10.756L26.1306 19.5246M4.00149 10.7397L1.79 11.7385C1.3089 11.9558 1 12.4327 1 12.9581C1 13.4711 1.29454 13.939 1.7586 14.1631L15.0264 20.5696C15.215 20.6607 15.4366 20.6546 15.6199 20.5531C16.0741 20.3019 16.0566 19.6466 15.5898 19.4196L5.51506 14.5203C4.22222 13.8917 4.24625 12.0511 5.55516 11.456M4.00149 10.7397L5.55516 11.456M5.55516 11.456L24.6334 20.2511M24.6334 20.2511L26.1306 19.5246M24.6334 20.2511L17.1138 23.9C16.3307 24.2801 15.4164 24.286 14.6284 23.916L4.84902 19.3247C3.05967 18.4846 1 19.7826 1 21.7503C1 22.766 1.57673 23.6945 2.49002 24.1491L14.6419 30.1979C15.4214 30.5859 16.3359 30.6009 17.1277 30.2386L29.6694 24.5001C30.3281 24.1989 30.75 23.5438 30.75 22.8229C30.75 22.1022 30.3283 21.4473 29.6701 21.1459L27.7392 20.2613M26.1306 19.5246L26.2784 19.4529C27.5251 18.791 27.4832 16.9999 26.2069 16.3965L16.3905 11.7551C15.8277 11.489 15.7993 10.7029 16.3416 10.3974C16.5635 10.2723 16.8332 10.2647 17.062 10.3769L29.9909 16.7243C30.4557 16.9525 30.75 17.4233 30.75 17.9388C30.75 18.4538 30.4563 18.9243 29.9922 19.1527L27.7392 20.2613M27.7392 20.2613L26.2478 20.9953M5.42364 10.0399L2.64902 8.76895C2.42263 8.66519 2.27761 8.43997 2.27761 8.19209C2.27761 7.94335 2.42359 7.71756 2.65112 7.61428L14.6286 2.18064C15.417 1.823 16.3256 1.83842 17.1012 2.22281L28.4895 7.86568C28.9799 8.10861 29.2899 8.60665 29.2899 9.15162C29.2899 10.2156 28.1675 10.9104 27.2074 10.4407L17.1464 5.51863C16.345 5.12653 15.4056 5.12768 14.6051 5.52158L5.42364 10.0399ZM26.2478 20.9953L17.1364 25.4791C16.3406 25.8707 15.4075 25.8742 14.6088 25.4888L4.36179 20.5429C3.39834 20.0779 2.27761 20.7758 2.27761 21.8409C2.27761 22.3882 2.5891 22.8884 3.08188 23.1324L14.6402 28.8542C15.4207 29.2406 16.3355 29.2534 17.1266 28.8891L28.8837 23.475C29.1314 23.3609 29.2899 23.1141 29.2899 22.8428C29.2899 22.5714 29.1315 22.3247 28.884 22.2106L26.2478 20.9953Z" stroke="url(#paint3_linear_551_977)" stroke-width="0.4"/>
<defs>
<linearGradient id="paint0_linear_551_977" x1="1" y1="8.69255" x2="30.4413" y2="22.9423" gradientUnits="userSpaceOnUse">
<stop stop-color="#ECF251"/>
<stop offset="1" stop-color="#A9F04F"/>
</linearGradient>
<linearGradient id="paint1_linear_551_977" x1="1" y1="8.69232" x2="30.4413" y2="22.9421" gradientUnits="userSpaceOnUse">
<stop stop-color="#ECF251"/>
<stop offset="1" stop-color="#A9F04F"/>
</linearGradient>
<linearGradient id="paint2_linear_551_977" x1="1" y1="8.69238" x2="30.4413" y2="22.9421" gradientUnits="userSpaceOnUse">
<stop stop-color="#ECF251"/>
<stop offset="1" stop-color="#A9F04F"/>
</linearGradient>
<linearGradient id="paint3_linear_551_977" x1="1" y1="8.69232" x2="30.4413" y2="22.9421" gradientUnits="userSpaceOnUse">
<stop stop-color="#ECF251"/>
<stop offset="1" stop-color="#A9F04F"/>
</linearGradient>
</defs>
</svg>
