<svg width="21" height="17" viewBox="0 0 21 17" fill="none" xmlns="http://www.w3.org/2000/svg">
<path d="M20.3093 2.0201C19.6494 2.30409 18.9556 2.50185 18.2452 2.60848C18.5773 2.55154 19.0661 1.95367 19.2606 1.71167C19.5562 1.34665 19.7814 0.929936 19.9249 0.482713C19.9249 0.449497 19.9581 0.402047 19.9249 0.378322C19.9082 0.369185 19.8894 0.364397 19.8704 0.364397C19.8513 0.364397 19.8325 0.369185 19.8158 0.378322C19.0443 0.796085 18.2233 1.11493 17.3721 1.32733C17.3424 1.33639 17.3109 1.3372 17.2808 1.32968C17.2507 1.32216 17.2232 1.30658 17.2013 1.28462C17.135 1.20573 17.0637 1.13123 16.9878 1.06161C16.6406 0.750545 16.2467 0.495955 15.8205 0.307147C15.2452 0.071118 14.6237 -0.0311007 14.0031 0.00820984C13.4009 0.0462402 12.813 0.207756 12.2759 0.482713C11.747 0.772597 11.2822 1.16641 10.9094 1.6405C10.5172 2.12845 10.234 2.69474 10.079 3.30126C9.95114 3.87818 9.93663 4.47446 10.0363 5.05692C10.0363 5.15656 10.0363 5.1708 9.95088 5.15656C6.56767 4.65834 3.79183 3.45784 1.52371 0.881295C1.42406 0.767414 1.37187 0.767414 1.2912 0.881295C0.304239 2.38072 0.783486 4.75324 2.01719 5.92526C2.18327 6.08184 2.35409 6.23369 2.5344 6.37604C1.96875 6.33588 1.41692 6.18259 0.911602 5.92526C0.816701 5.86357 0.764506 5.89679 0.759761 6.01067C0.74631 6.16855 0.74631 6.32729 0.759761 6.48517C0.858769 7.24181 1.15696 7.95858 1.62383 8.56218C2.0907 9.16578 2.70951 9.63456 3.41698 9.92057C3.58944 9.99444 3.76914 10.0501 3.95316 10.0866C3.42951 10.1897 2.89245 10.2058 2.36358 10.1341C2.2497 10.1104 2.20699 10.1721 2.2497 10.2812C2.94722 12.1792 4.46088 12.7581 5.57122 13.0808C5.72306 13.1045 5.8749 13.1045 6.04572 13.1424C6.04572 13.1424 6.04572 13.1424 6.01725 13.1709C5.68984 13.7688 4.36598 14.1721 3.75862 14.3809C2.65002 14.7791 1.46806 14.9313 0.294749 14.8269C0.109693 14.7985 0.0669874 14.8032 0.0195371 14.8269C-0.0279131 14.8507 0.0195371 14.9028 0.0717324 14.9503C0.308984 15.1069 0.546235 15.2445 0.792976 15.3774C1.52753 15.778 2.3041 16.0963 3.10855 16.3264C7.27468 17.4747 11.9628 16.63 15.0897 13.522C17.5477 11.0831 18.4113 7.71888 18.4113 4.34991C18.4113 4.22179 18.5678 4.14587 18.658 4.07944C19.2798 3.59492 19.8281 3.02272 20.2855 2.38072C20.3648 2.28502 20.4054 2.16318 20.3994 2.03908V2.03908C20.3994 1.96791 20.3994 1.98214 20.3093 2.0201Z" fill="white"/>
</svg>
